<?xml version="1.0" encoding="UTF-8"?>
<svg width="60px" height="60px" viewBox="0 0 60 60" version="1.1" xmlns="http://www.w3.org/2000/svg" xmlns:xlink="http://www.w3.org/1999/xlink">
    <!-- Generator: sketchtool 58 (101010) - https://sketch.com -->
    <title>0B5512DF-6EBE-4693-8CFF-3E25BCCE5F25</title>
    <desc>Created with sketchtool.</desc>
    <g id="Asset-Artboard-Page" stroke="none" stroke-width="1" fill="none" fill-rule="evenodd">
        <g id="icon-copy">
            <g id="067-check" transform="translate(7.000000, 8.000000)" fill="#FFFFFF" fill-rule="nonzero">
                <path d="M30.5346182,15.2832665 C29.9931033,14.8429696 29.2002554,14.9248273 28.7604818,15.4670602 L21.0755185,24.9442548 L16.0694668,20.7559692 C15.533874,20.3081875 14.7384204,20.3805407 14.2928432,20.9170708 C13.8464369,21.4533634 13.9185678,22.2512678 14.45345,22.6983367 L20.4407901,27.7063872 C20.7006509,27.9230903 21.0344193,28.0269271 21.3699643,27.9940177 C21.7045617,27.9620588 22.0140496,27.7958485 22.2277182,27.5326921 L30.7182026,17.0620375 C31.1559627,16.5206362 31.075304,15.7234446 30.5346182,15.2832665 Z" id="Path"></path>
                <path d="M22,0 C9.84760791,0 0,9.84936211 0,22 C0,34.1498193 9.84772486,44 22,44 C34.1530938,44 44,34.1498193 44,22 C44,9.85018074 34.1530938,0 22,0 Z M22,41.5095046 C11.243132,41.5095046 2.49049543,32.7575696 2.49049543,22 C2.49049543,11.2424304 11.243249,2.49037848 22,2.49037848 C32.7585052,2.49037848 41.5095046,11.2423134 41.5095046,21.9998831 C41.5095046,32.7574527 32.7585052,41.5095046 22,41.5095046 Z" id="Shape"></path>
            </g>
            <g id="Group-5" transform="translate(2.000000, 2.000000)">
                <path d="M54.5682992,38.9291971 C54.285517,39.4757596 53.8810903,39.9257596 53.4643585,40.1820486 L48.4868983,43.2691189 C47.5817137,43.8323221 46.634106,44.6392752 45.7540004,45.5284939 C44.8763557,46.4193533 44.0809793,47.3770096 43.5294777,48.287908 L40.5037191,53.3025955 C40.2500002,53.7277518 39.7965876,54.1418924 39.2457892,54.4324002 C38.6967486,54.7261893 38.0585255,54.8907205 37.4996409,54.8883768 C37.2842435,54.8883768 37.0812684,54.8659939 36.8973955,54.8226346 L31.1953423,53.4858768 C30.1912484,53.2530252 28.999883,53.1531814 27.7910562,53.1514236 C26.497383,53.1530643 25.2088661,53.2670877 24.1389108,53.5299393 L18.4526784,54.9367752 C18.2580239,54.9857596 18.041689,55.0109473 17.8137522,55.0109473 C17.2562739,55.0132986 16.6257854,54.8534549 16.0816669,54.5674002 C15.5359076,54.2836893 15.0857764,53.8802127 14.8304168,53.4634939 L11.7423125,48.4854861 C11.1790918,47.5812674 10.373051,46.6327518 9.48357004,45.7534939 C8.59268282,44.8749393 7.63499664,44.0797049 6.72406974,43.527283 L1.70758485,40.5016189 C1.28241531,40.2487283 0.868261745,39.7953299 0.577744854,39.2437283 C0.283243464,38.6955252 0.119410219,38.0574393 0.121754042,37.4983377 C0.120816513,37.2811893 0.143434407,37.0806814 0.187498284,36.9018533 L1.5252354,31.1941189 C1.75809424,30.1907596 1.85723796,28.9987283 1.85958179,27.7908768 C1.85700358,26.4972439 1.74227343,25.2087674 1.48187467,24.1404861 L0.0734712833,18.4536111 C0.0251885245,18.2581424 2.0250468e-13,18.0426346 2.0250468e-13,17.8138846 C-0.00235139866,17.2573611 0.157497347,16.626658 0.443560974,16.0826736 C0.726343248,15.5352908 1.13076995,15.0861111 1.54843925,14.8298221 L6.52660263,11.7425174 C7.43178717,11.1793143 8.37939491,10.3723611 9.25950053,9.48314238 C10.1371451,8.59228301 10.9317012,7.63462676 11.4840232,6.72372832 L14.5097818,1.70810332 C14.7635007,1.28294707 15.2160929,0.868806446 15.7677117,0.578298633 C16.315932,0.284626758 16.9531003,0.120681446 17.5131569,0.122322071 C17.7278511,0.122322071 17.9291855,0.144704883 18.1146991,0.188884571 L23.8175727,1.52575957 C24.8200259,1.75861113 26.011274,1.85845488 27.2202181,1.86009551 C28.5138913,1.85751738 29.8024081,1.74279082 30.8731838,1.48157988 L36.5594162,0.0740408209 C36.754891,0.0250564459 36.9695852,2.13162821e-14 37.1983424,2.13162821e-14 C37.7548832,-0.00154511663 38.385606,0.157361133 38.9294902,0.443415821 C39.4760698,0.727126758 39.9270214,1.13130645 40.1823809,1.5489627 L43.2697821,6.52626738 C43.8338232,7.43048613 44.6390436,8.37806426 45.5285246,9.25825957 C46.4203493,10.1358768 47.3778011,10.9312283 48.2888452,11.4836502 L53.3046269,14.5093143 C53.7297965,14.7630252 54.1432469,15.2156033 54.4335294,15.7672049 C54.7280308,16.315408 54.891864,16.9534939 54.8895974,17.5125955 C54.8904578,17.727283 54.8671367,17.9309549 54.823776,18.1174002 L53.4869764,23.8176346 C53.2548207,24.8200564 53.1525128,26.0122049 53.1516925,27.2208768 C53.1542707,28.5135721 53.2681805,29.802283 53.5310403,30.8737283" id="Path" stroke="#FFFFFF" stroke-width="2" stroke-linecap="round" fill-rule="nonzero"></path>
                <circle id="Oval" fill="#FFFFFF" cx="55" cy="35" r="1"></circle>
            </g>
        </g>
    </g>
</svg>