<?xml version="1.0" encoding="UTF-8"?>
<svg width="60px" height="60px" viewBox="0 0 60 60" version="1.1" xmlns="http://www.w3.org/2000/svg" xmlns:xlink="http://www.w3.org/1999/xlink">
    <!-- Generator: sketchtool 58 (101010) - https://sketch.com -->
    <title>5DF38AE4-3835-4CFD-88DC-5F82F7E35424</title>
    <desc>Created with sketchtool.</desc>
    <g id="Asset-Artboard-Page" stroke="none" stroke-width="1" fill="none" fill-rule="evenodd">
        <g id="icon" stroke="#FFFFFF">
            <g id="055-puzzle">
                <path d="M55.7732813,23.7790527 L51.5511328,19.3844531 C53.0969531,19.005 54.5660156,18.2232422 55.7724609,17.0159766 C57.5366016,15.2526562 58.4226563,12.9322266 58.4220703,10.6215234 C58.4228906,8.31070312 57.5366016,5.98980469 55.7732813,4.22707031 C54.0098438,2.46210937 51.6888281,1.576875 49.3780078,1.57757812 C47.0666016,1.57675781 44.7462891,2.46304687 42.9835547,4.22707031 C41.7765234,5.43269531 40.9945313,6.90175781 40.6144922,8.44699219 L33.33375,1.16636719 C32.5557422,0.388945312 31.5267188,-0.000220502281 30.5096484,-0.000220502281 C29.491875,-0.000220502281 28.4615625,0.3890625 27.6847266,1.16636719 L16.9757813,11.8775391 C16.5423047,12.3110156 16.5423047,13.0121484 16.9757813,13.445625 L18.2583984,14.7289453 C18.5210156,14.9915625 18.8953125,15.1054687 19.2598828,15.0329297 C19.6067578,14.9640234 19.9589063,14.9293359 20.3117578,14.9293359 C21.6919922,14.9308594 23.0610938,15.4523437 24.1173047,16.5055078 C25.1691797,17.5579687 25.6905469,18.9273047 25.6920703,20.3074219 C25.6906641,21.6897656 25.1690625,23.0620312 24.1158984,24.1158984 C23.0626172,25.1683594 21.6919922,25.6906641 20.3102344,25.6913672 C18.9292969,25.6905469 17.5579688,25.1683594 16.5053906,24.1158984 C15.4514063,23.0610937 14.9299219,21.6919922 14.9292188,20.3110547 C14.9283984,19.9575 14.9632031,19.6060547 15.0326953,19.2615234 C15.1051172,18.8976562 14.990625,18.5211328 14.7294141,18.2592187 L13.4453906,16.9758984 C13.0120313,16.543125 12.3099609,16.543125 11.8764844,16.9767187 L1.16683594,27.6867187 C0.389414063,28.4633203 -0.000351562497,29.4929297 0.0010327081,30.5108203 C-0.000468749997,31.5278906 0.389414063,32.5583203 1.16742188,33.3349219 L8.44792969,40.6154297 C6.90210938,40.9957031 5.43375,41.7774609 4.22660156,42.9853125 C2.46328125,44.7471094 1.57699219,47.0682422 1.57863281,49.3790625 C1.57710938,51.6890625 2.46246094,54.0107812 4.22742188,55.7743359 C5.99074219,57.5384766 8.311875,58.4238281 10.6232813,58.4223047 C12.9332813,58.4237109 15.2535938,57.5368359 17.015625,55.7735156 C18.2226563,54.5664844 19.0052344,53.0974219 19.3846875,51.5521875 L26.6651953,58.8335156 C27.4434375,59.6109375 28.4722266,60.0007031 29.4901172,59.9997795 C30.5078906,60.0007031 31.5367969,59.6108203 32.3133984,58.8341016 L43.0231641,48.1243359 C43.4559375,47.6909766 43.4559375,46.9889062 43.0231641,46.5554297 L41.7405469,45.2721094 C41.47875,45.0103125 41.1044531,44.8964062 40.7397656,44.968125 C40.3928906,45.0376172 40.0400391,45.0716016 39.6864844,45.0716016 C38.3055469,45.0701953 36.935625,44.5494141 35.8823438,43.4968359 C34.8290625,42.4428516 34.3075781,41.0729297 34.306875,39.6912891 C34.3076953,38.3103516 34.8298828,36.9390234 35.8823438,35.8849219 C36.935625,34.8324609 38.30625,34.3108594 39.6887109,34.3094531 C41.0696484,34.3108594 42.4403906,34.8331641 43.494375,35.885625 C44.5468359,36.9396094 45.0684375,38.3095312 45.0691406,39.6904687 C45.0699609,40.0425 45.0343359,40.3954687 44.9655469,40.7452734 C44.8945313,41.1091406 45.0077344,41.4805078 45.2703516,41.7430078 L46.5529688,43.0263281 C46.7586328,43.2326953 47.0449219,43.3510547 47.3377734,43.3510547 C47.6299219,43.3510547 47.9153906,43.2328125 48.1225781,43.0263281 L58.8329297,32.3151562 C59.6111719,31.5377344 60.0001172,30.508125 59.9992595,29.4910547" id="Shape" stroke-width="2" stroke-linejoin="round" fill-rule="nonzero"></path>
                <circle id="Oval" fill="#FFFFFF" cx="58" cy="26" r="1"></circle>
            </g>
        </g>
    </g>
</svg>