<?xml version="1.0" encoding="UTF-8"?>
<svg width="60px" height="60px" viewBox="0 0 60 60" version="1.1" xmlns="http://www.w3.org/2000/svg" xmlns:xlink="http://www.w3.org/1999/xlink">
    <!-- Generator: sketchtool 58 (101010) - https://sketch.com -->
    <title>0B373677-FCBF-4065-B0BA-17F598108C05</title>
    <desc>Created with sketchtool.</desc>
    <g id="Asset-Artboard-Page" stroke="none" stroke-width="1" fill="none" fill-rule="evenodd">
        <g id="icon-copy-2">
            <g id="065-settings-1" transform="translate(2.000000, 0.000000)" fill-rule="nonzero">
                <path d="M30.6628125,5.24988281 C30.5683594,5.08441406 30.4301953,4.94859375 30.2647266,4.85039063 L25.7633203,0.326132813 C25.3306641,-0.10734375 24.6297656,-0.10875 24.1971094,0.322382813 C23.7629297,0.753632813 23.7615234,1.45511719 24.1927734,1.88859375 L26.9285156,4.63769531 C12.0073828,5.06367188 0.040078125,17.28375 0.0385546875,32.3088281 C0.0385546875,34.5986719 0.316875,36.8255859 0.841992188,38.9559375 C0.987421875,39.5503125 1.58847656,39.9130078 2.18285156,39.7667578 C2.77722656,39.6205078 3.13910156,39.0202734 2.99367188,38.4264844 C2.51074219,36.4667578 2.25386719,34.4191406 2.25386719,32.3087109 C2.25386719,25.2708984 5.10339844,18.9087891 9.71472656,14.2952344 C14.3201953,9.69269531 20.6653125,6.84691406 27.6875391,6.834375 L25.1636719,10.8025781 C24.8349609,11.3186719 24.9878906,12.0032812 25.5041016,12.331875 C26.0201953,12.6605859 26.7048047,12.5076562 27.0325781,11.9914453 L30.4654687,6.59214844 C30.5917969,6.47097656 30.6884766,6.32121094 30.7461328,6.15140625 L31.0635937,5.65230469 L30.6628125,5.24988281 Z" id="Path" fill="#FFFFFF"></path>
                <path d="M46.2819141,51.3775781 C45.8738672,50.92125 45.1754297,50.8828125 44.7189844,51.2912109 C40.2065625,55.3303125 34.2601172,57.7832812 27.7280859,57.7841016 C18.0549609,57.7849219 9.64359375,52.3923047 5.32921875,44.450625 L10.0276172,44.7577734 C10.6375781,44.7977344 11.1655078,44.3354297 11.2060547,43.7254687 C11.2460156,43.1148047 10.7837109,42.5875781 10.17375,42.5476172 L2.6765625,42.0580078 L0.552890625,49.2664453 C0.38015625,49.8527344 0.716132813,50.4685547 1.303125,50.6421094 C1.89011719,50.8156641 2.50605469,50.4796875 2.67878906,49.8925781 L2.67796875,49.8925781 L3.77296875,46.1739844 C8.56394531,54.4353516 17.4914063,59.9984766 27.7278516,60.0000002 C34.8194531,60.0008203 41.2983984,57.3298828 46.1955469,52.9415625 C46.6511719,52.5338672 46.6903125,51.8339062 46.2819141,51.3775781 Z" id="Path" fill="#FFFFFF"></path>
                <path d="M56.4399609,47.8357031 C56.3778516,47.2255078 55.8358594,46.7817187 55.2274219,46.8430078 L51.0317578,47.2646484 C53.8066406,42.9508594 55.4186719,37.8152344 55.4186719,32.3096484 C55.415625,19.4325 46.6300781,8.60824219 34.7201953,5.510625 C34.12875,5.35699219 33.5232422,5.71148438 33.3696094,6.30363281 C33.2159766,6.89578125 33.5704687,7.50058594 34.1634375,7.65421875 C45.1140234,10.50375 53.2055859,20.4633984 53.2041797,32.3097656 C53.2041797,37.4283984 51.695625,42.1860938 49.1001562,46.1763281 L47.7,41.971875 C47.5057031,41.3915625 46.8788672,41.0784375 46.2992578,41.2712109 C45.7195312,41.4639844 45.4051172,42.0916406 45.5985937,42.6719531 L47.6158594,48.7290234 C47.630625,48.8958984 47.6846484,49.0577344 47.7739453,49.2030469 L47.9725781,49.7997656 L48.6430078,49.7326172 C48.7552734,49.74 48.868125,49.7259375 48.9774609,49.6986328 L55.4489062,49.048125 C56.0574609,48.9868359 56.5019531,48.4442578 56.4399609,47.8357031 Z" id="Path" fill="#FFFFFF"></path>
                <path d="M40.7453906,31.8878906 C40.7453906,31.8878906 39.1422656,30.9264844 38.8129687,29.5942969 C38.4814453,28.2621094 39.4488281,26.6635547 39.4488281,26.6635547 C39.6585937,26.3157422 39.6541406,25.7501953 39.4392187,25.4053125 L37.8885937,23.3097656 C37.6751953,23.0616797 37.2823828,22.9021875 36.9309375,22.9021875 C36.8475,22.9021875 36.7662891,22.9110937 36.6902344,22.9301953 C36.6902344,22.9301953 36.1202344,23.0735156 35.41125,23.0735156 C34.8574219,23.0735156 34.2201563,22.9863281 33.7040625,22.6748437 C32.5262109,21.9659766 32.0817187,20.1523828 32.0817187,20.1523828 C31.9850391,19.7580469 31.5817969,19.3616016 31.1853516,19.2714844 L28.6082813,18.8817187 L28.5464062,18.8803125 C28.1528906,18.8803125 27.6897656,19.1328516 27.4919531,19.4636719 C27.4919531,19.4636719 26.5319531,21.0638672 25.2,21.3960938 C25.0042969,21.4448438 24.8042578,21.4654688 24.6032813,21.4654688 C23.4336328,21.4654688 22.2691406,20.7610547 22.2691406,20.7610547 C22.0985156,20.6576953 21.8733984,20.6058984 21.6496875,20.6058984 C21.4178906,20.6058984 21.1851562,20.6605078 21.0108984,20.7697266 L18.9153516,22.3203516 C18.6082031,22.5854297 18.436875,23.1244922 18.5342578,23.5187109 C18.5342578,23.5187109 18.9898828,25.3285547 18.2810156,26.5048828 C17.5714453,27.6805078 15.759375,28.1272266 15.759375,28.1272266 C15.3650391,28.2239062 14.9692969,28.6278516 14.8784766,29.0235937 L14.4892969,31.6006641 C14.4604687,32.0060156 14.7210938,32.5081641 15.0704297,32.7172266 C15.0704297,32.7172266 16.6712109,33.6772266 17.000625,35.0091797 C17.3314453,36.3405469 16.3655859,37.9383984 16.3655859,37.9383984 C16.1551172,38.2862109 16.1588672,38.8517578 16.3744922,39.1966406 L17.9251172,41.2914844 C18.1399219,41.5402734 18.5328516,41.6998828 18.8842969,41.6998828 C18.9663281,41.6998828 19.048125,41.6909766 19.1234766,41.671875 C19.1234766,41.671875 19.6942969,41.529375 20.4024609,41.529375 C20.9562891,41.529375 21.5942578,41.6165625 22.1103516,41.9266406 C23.2859766,42.6355078 23.7311719,44.4496875 23.7311719,44.4496875 C23.829375,44.8440234 24.2332031,45.2404688 24.6283594,45.3305859 L27.2054297,45.7189453 L27.2674219,45.7211719 C27.6595312,45.7211719 28.1225391,45.4686328 28.321875,45.1378125 C28.321875,45.1378125 29.2824609,43.5384375 30.6138281,43.2076172 C30.8095312,43.1588672 31.0095703,43.1382422 31.2105469,43.1382422 C32.3801953,43.1382422 33.5453906,43.8434766 33.5453906,43.8434766 C33.7151953,43.9476563 33.9404297,43.9986328 34.1648437,43.9986328 C34.3959375,43.9986328 34.6285547,43.9440234 34.8028125,43.8348047 L36.8969531,42.2855859 C37.205625,42.0213281 37.3768359,41.4821484 37.2786328,41.0878125 C37.2786328,41.0878125 36.8252344,39.2743359 37.5325781,38.0987109 C38.2414453,36.9216797 40.055625,36.4763672 40.055625,36.4763672 C40.4506641,36.3796875 40.8464062,35.9764453 40.9365234,35.5805859 L41.3257031,33.0043359 C41.3545312,32.5991016 41.0940234,32.0968359 40.7453906,31.8878906 Z M38.8529297,34.5314062 C37.9557422,34.8541406 36.4686328,35.5702734 35.6327344,36.9585937 C34.8005859,38.3431641 34.8624609,39.9905859 34.996875,40.9357031 L34.0708594,41.6210156 C33.4188281,41.3145703 32.3621484,40.9238672 31.2094922,40.9238672 C30.8180859,40.9238672 30.4364063,40.9696875 30.0789844,41.0589844 C28.5084375,41.44875 27.3867188,42.6591797 26.8151953,43.4204297 L25.6758984,43.2482812 C25.3524609,42.3510937 24.6376172,40.8646875 23.2502344,40.0280859 C22.4629688,39.5547656 21.5053125,39.3147656 20.4022266,39.3147656 C19.9739063,39.3147656 19.5847266,39.3509766 19.2761719,39.3944531 L18.5894531,38.4663281 C18.9962109,37.6039453 19.5419531,36.0458203 19.1513672,34.4775 C18.7630078,32.9061328 17.5511719,31.7845312 16.7899219,31.2114844 L16.96125,30.0721875 C17.8570312,29.74875 19.3433203,29.0333203 20.1792187,27.6479297 C21.0137109,26.2619531 20.9500781,24.6145312 20.8156641,23.6701172 L21.7423828,22.9848047 C22.3937109,23.2905469 23.4502734,23.6811328 24.6030469,23.6811328 C24.9936328,23.6811328 25.3747266,23.6353125 25.7342578,23.5460156 C27.3042187,23.1554297 28.4251172,21.9458203 28.9973437,21.1824609 L30.1369922,21.3537891 C30.4597266,22.2516797 31.17375,23.7375 32.5596094,24.5710547 C33.346875,25.0474219 34.3066406,25.288125 35.4105469,25.288125 C35.8395703,25.288125 36.2280469,25.2512109 36.5374219,25.2084375 L37.2234375,26.1365625 C36.8166797,26.9989453 36.2701172,28.5570703 36.6607031,30.1262109 C37.0498828,31.6975781 38.2614844,32.8205859 39.0257812,33.3936328 L38.8529297,34.5314062 Z" id="Shape" fill="#FFFFFF"></path>
                <path d="M30.6139453,27.8075391 C29.7677344,27.2988281 28.8366797,27.0558984 27.915,27.0558984 C26.1346875,27.0557813 24.4000781,27.9602344 23.4144141,29.5958203 C21.9213281,32.0762109 22.7218359,35.2993359 25.2028125,36.7938281 C26.0490234,37.3041797 26.9817187,37.5471094 27.9017578,37.5471094 C29.6806641,37.5471094 31.4158594,36.6410156 32.4015234,35.0070703" id="Shape" stroke="#FFFFFF" stroke-width="2" stroke-linecap="round"></path>
            </g>
            <circle id="Oval" stroke="#FFFFFF" fill="#FFFFFF" cx="35" cy="31" r="1"></circle>
        </g>
    </g>
</svg>